# xmcd
#
# Track frame offsets: 
#        182
#        13500
#        23421
#        35924
#        49539
#        62571
#        74783
#        89910
#        101016
#        112009
#        120827
#        131583
#        147498
#        160378
#        173193
#        186763
#        200171
#        214827
#
# Disc length: 3056 seconds
#
# Revision: 0
# Processed by: cddbd v1.5.2PL0 Copyright (c) Steve Scherf et al.
# Submitted via: ExactAudioCopy v0.99pb5
#
DISCID=100bee12
DTITLE=Various Artist - Folksongs - Old Time Country - USA - 1926-1944 [CD1)
DYEAR=1996
DGENRE=Country
TTITLE0=Clarence Ashley - The Coo Coo Bird
TTITLE1=Monroe Brothers - Nine Poud Hammer
TTITLE2=TwoPoor Boys - John Henry
TTITLE3=Buell Kazee - East Virginia
TTITLE4=TwoPoor Boys - Two White Horses
TTITLE5=Ernest V. Stoneman and His Dixie Mountaineers - The Mountaineer'
TTITLE5=s Courtship
TTITLE6=Bascom Lamar Lunsford - I Wish I Was A Mole In The Ground
TTITLE7=The Twentieth Century Ministrel - Greensleeves
TTITLE8=Monroe Brothers - My Long Journey Home
TTITLE9=Morris Brothers - Salty Dog
TTITLE10=Mainer and Morris - Train Carry My Girl Back Home
TTITLE11=Sam and Kirk McGee - Brown's Ferry Blues
TTITLE12=The Carter Family - Rambling Boy
TTITLE13=The Carter Family - Keep On The Sunny Side
TTITLE14=Will Bennett - Railroad Bill
TTITLE15=Papa Harvey Hull - Alabama Bound
TTITLE16=Darby and Tarlton - In The Pines
TTITLE17=Darby and Tarlton - Birmingham Jail (On A Monday)
EXTD=
EXTT0=
EXTT1=
EXTT2=
EXTT3=
EXTT4=
EXTT5=
EXTT6=
EXTT7=
EXTT8=
EXTT9=
EXTT10=
EXTT11=
EXTT12=
EXTT13=
EXTT14=
EXTT15=
EXTT16=
EXTT17=
PLAYORDER=
